<svg version="1" xmlns="http://www.w3.org/2000/svg" width="933.333" height="933.333" viewBox="0 0 700.000000 700.000000"><path d="M313.7 27.6c-.1.1-4 .5-8.7.8-7.9.6-18.7 2-23.6 3-1.2.2-3.8.7-5.7 1-6.2 1-21.3 4.5-24.3 5.6-1.6.6-2.9 1.1-2.9 1 0-.5-9.8 2.5-19 5.6-92 31.8-163.1 102.7-195 194.4-6.9 20.1-11 36.8-15 61.6-.3 2-1.3 11-2 18.9-.3 3.7-.7 18.1-.6 21.5.1 1.3 18.2 1.5 156.8 1.4 86.3-.1 157.1-.2 157.6-.3.4 0 .7-71 .7-157.6V27l-9.1.2c-5 .2-9.1.4-9.2.4zM366.4 184.7l.1 157.8h315.2l-.3-8c-.4-10.9-1.3-23.6-1.8-26.1-.2-1.1-.7-4.7-1-8-1.7-15.6-9.1-45.6-16.1-64.9-11.3-31.4-29.4-63.8-50.6-90.5-7.6-9.6-29.6-32.6-39.4-41.1-24.5-21.2-58.8-41.9-90-54.2-19-7.4-45.6-15.2-59-17.2-1.1-.1-4.9-.7-8.5-1.3-6.4-1.1-14.6-2.2-20.5-2.7-1.6-.2-8.7-.6-15.6-1l-12.6-.6.1 157.8zM27.5 371.2c.2 6.8.6 13.9.9 15.8.3 1.9.8 6.1 1.1 9.4.4 3.2.8 6.8 1 8 7.6 45.4 20.3 80.4 43 118.5 7.4 12.3 23.4 34.5 31.2 43.3 7 7.9 25.7 26.3 32.3 31.8 3.6 3 6.7 5.7 7 6 .3.3 3.7 2.9 7.5 5.7 3.9 2.9 7.5 5.6 8 6 2 1.5 9.8 6.7 11.5 7.8 1 .5 6.5 3.8 12.2 7.1 36.7 21.8 78.1 35.7 124.8 41.8 3.1.4 20.3 1.5 30.2 2 2.1.1 3.9-.3 4.1-.9.2-.5.3-71.4.2-157.5V359.5l-157.8-.3L27 359l.5 12.2zM368.5 516.7v157.8l5-.2c38.7-1.2 70.7-7.5 105.5-20.5 54.8-20.4 105.2-57.5 138.4-101.7 2.7-3.6 5.2-6.8 5.6-7.1 2.9-2.6 19.7-30.5 27.2-45.4 14.6-29 26.8-68.2 30.3-97.1.4-2.8.8-6.1 1-7.5.8-5.3 1.6-15.9 2-25.8l.3-10.2H368.5v157.7z"/></svg>