<svg xmlns="http://www.w3.org/2000/svg" width="138.896" height="138.896" viewBox="0 0 36.749559 36.749559"><g color="#000" transform="translate(-41.188 -54.013)"><circle r="18.375" cy="72.388" cx="59.563" style="isolation:auto;mix-blend-mode:normal" overflow="visible" opacity=".99" fill="#fd2e13"/><path style="isolation:auto;mix-blend-mode:normal" d="M77.938 72.388a18.375 18.375 0 0 1-11.343 16.976A18.375 18.375 0 0 1 46.57 85.38a18.375 18.375 0 0 1-3.983-20.025 18.375 18.375 0 0 1 16.976-11.343v18.375z" overflow="visible" opacity=".99" fill="#00cb74"/><path d="M77.938 72.388A18.375 18.375 0 0 1 68.75 88.3a18.375 18.375 0 0 1-18.375 0 18.375 18.375 0 0 1-9.188-15.913" style="isolation:auto;mix-blend-mode:normal" overflow="visible" opacity=".99" fill="#ece02f"/><path d="M77.938 72.388a18.375 18.375 0 0 1-18.375 18.374V72.388z" style="isolation:auto;mix-blend-mode:normal" overflow="visible" fill="#12a0ef" fill-opacity=".941"/></g></svg>